<?xml version="1.0" standalone="no"?>
<!DOCTYPE svg PUBLIC "-//W3C//DTD SVG 20010904//EN"
 "http://www.w3.org/TR/2001/REC-SVG-20010904/DTD/svg10.dtd">
<svg version="1.0" xmlns="http://www.w3.org/2000/svg"
 width="388.000000pt" height="388.000000pt" viewBox="0 0 388.000000 388.000000"
 preserveAspectRatio="xMidYMid meet">
<metadata>
Created by potrace 1.11, written by Peter Selinger 2001-2013
</metadata>
<g transform="translate(0.000000,388.000000) scale(0.100000,-0.100000)"
fill="#000000" stroke="none">
<path d="M1912 3137 c-11 -12 -28 -39 -37 -60 -15 -36 -68 -247 -78 -312 -3
-16 -10 -59 -16 -95 -6 -36 -13 -81 -16 -100 -3 -19 -19 -120 -35 -225 -17
-104 -35 -219 -40 -255 -31 -216 -45 -279 -77 -350 -16 -36 -51 -116 -79 -178
l-49 -113 -190 -183 c-263 -254 -361 -333 -492 -400 -154 -78 -349 -117 -466
-95 -29 5 -45 4 -52 -4 -7 -8 -49 -11 -138 -10 l-128 2 3 -27 3 -27 400 2
c608 4 2271 4 2895 1 l555 -3 0 25 0 25 -145 2 c-324 3 -442 21 -596 93 -157
72 -242 139 -522 409 -190 182 -234 238 -207 261 12 10 13 16 4 27 -7 8 -18
12 -24 9 -19 -7 -131 256 -144 339 -106 681 -134 846 -166 1005 -33 160 -81
260 -125 260 -9 0 -26 -10 -38 -23z m96 -167 c26 -96 76 -364 98 -523 2 -16
13 -81 23 -145 11 -64 22 -135 26 -157 3 -22 10 -67 15 -100 15 -89 12 -94
-17 -45 -33 56 -99 128 -134 146 -85 44 -157 12 -249 -111 -20 -27 -40 -57
-43 -65 -8 -18 -1 42 18 160 8 47 16 105 20 130 3 25 12 83 20 130 21 130 24
151 31 205 3 28 8 53 10 56 2 4 6 24 9 45 5 32 30 168 40 209 19 85 47 167 64
188 14 17 16 16 32 -15 9 -18 26 -67 37 -108z m-25 -859 c79 -30 213 -247 236
-381 20 -121 22 -140 17 -140 -3 0 -22 9 -42 20 -74 42 -139 61 -220 65 -91 5
-158 -10 -243 -52 -30 -15 -60 -30 -65 -32 -5 -2 -6 12 -2 33 4 20 9 52 11 71
17 127 98 290 189 377 47 46 76 55 119 39z m141 -520 c113 -51 132 -70 145
-143 19 -109 21 -117 56 -252 57 -226 108 -339 182 -406 23 -22 39 -40 35 -41
-4 0 -259 -2 -568 -2 l-561 -2 1 31 c1 16 17 54 35 82 18 29 48 92 66 140 30
80 96 325 110 412 3 19 8 48 11 65 7 38 23 56 85 89 100 55 146 67 244 63 75
-3 102 -10 159 -36z m-519 -20 c-3 -16 -13 -35 -21 -42 -11 -9 -10 -2 3 34 19
51 29 55 18 8z m724 -46 c0 -5 -9 1 -19 14 -11 13 -20 35 -19 50 0 24 2 22 19
-14 10 -22 19 -44 19 -50z m-765 -167 c-80 -376 -163 -546 -286 -583 -39 -11
-160 -20 -228 -15 -8 0 9 15 39 32 124 72 230 212 362 478 51 101 89 166 106
179 16 11 29 21 29 21 1 0 -9 -51 -22 -112z m793 75 c19 -17 46 -62 68 -113
117 -267 270 -474 395 -532 27 -13 49 -26 50 -29 0 -12 -194 1 -245 16 -94 27
-166 129 -223 320 -27 87 -39 137 -82 328 -9 44 -4 46 37 10z m-987 -220
c-152 -285 -271 -397 -465 -438 -85 -18 -235 -20 -195 -3 112 48 210 103 291
164 84 64 276 238 379 345 19 20 37 35 39 33 2 -2 -20 -47 -49 -101z m1230 -9
c230 -232 424 -375 573 -423 20 -7 37 -17 37 -21 0 -5 -6 -8 -12 -5 -7 2 -53
6 -103 9 -257 16 -396 125 -559 439 -31 59 -52 107 -48 107 4 0 55 -48 112
-106z"/>
<path d="M2150 1354 c-39 -39 -43 -46 -29 -59 14 -14 20 -11 57 24 23 22 42
47 42 55 0 30 -28 22 -70 -20z"/>
<path d="M1970 1175 c-37 -38 -42 -47 -30 -55 22 -14 22 -14 63 28 26 26 36
44 31 55 -9 25 -15 22 -64 -28z"/>
<path d="M1819 1037 c-8 -7 -31 -25 -49 -40 -29 -25 -31 -30 -18 -43 13 -13
20 -11 59 22 51 42 54 47 37 62 -9 7 -18 7 -29 -1z"/>
<path d="M1578 872 c-47 -26 -58 -44 -38 -57 6 -4 35 6 64 21 48 24 53 29 43
46 -14 22 -12 23 -69 -10z"/>
<path d="M2566 1652 c-51 -18 -61 -28 -48 -49 5 -9 21 -7 62 7 42 14 55 23 56
39 1 25 -6 25 -70 3z"/>
<path d="M2760 1653 c0 -23 110 -59 122 -40 13 20 9 24 -32 41 -54 22 -90 21
-90 -1z"/>
<path d="M2992 1557 c-9 -10 0 -22 40 -52 48 -35 52 -37 64 -20 12 16 8 22
-31 51 -48 38 -58 40 -73 21z"/>
<path d="M3190 1405 c-11 -14 -7 -22 30 -61 40 -39 46 -42 59 -29 14 14 11 20
-30 61 -41 40 -47 44 -59 29z"/>
<path d="M3370 1225 c-11 -13 -6 -23 32 -60 43 -42 46 -43 61 -27 14 16 13 20
-21 53 -50 48 -58 51 -72 34z"/>
<path d="M3561 1057 c-6 -6 -11 -16 -11 -21 0 -18 80 -78 95 -72 15 5 21 36 8
36 -5 0 -24 16 -44 34 -27 26 -39 32 -48 23z"/>
<path d="M3757 903 c-15 -15 -5 -30 33 -52 42 -23 70 -22 70 2 0 7 -20 23 -45
35 -51 25 -49 24 -58 15z"/>
<path d="M46 843 c-9 -22 1 -30 61 -53 50 -19 51 -19 56 0 6 23 7 23 -60 49
-46 18 -52 18 -57 4z"/>
</g>
</svg>
